<?xml version="1.0" encoding="UTF-8" standalone="no"?>
<!DOCTYPE svg PUBLIC "-//W3C//DTD SVG 1.1//EN"
 "http://www.w3.org/Graphics/SVG/1.1/DTD/svg11.dtd">
<!-- Generated by graphviz version 2.36.0 (20140111.2315)
 -->
<!-- Title: staging Pages: 1 -->
<svg width="639pt" height="382pt"
 viewBox="0.00 0.00 638.86 382.00" xmlns="http://www.w3.org/2000/svg" xmlns:xlink="http://www.w3.org/1999/xlink">
<g id="graph0" class="graph" transform="scale(1 1) rotate(0) translate(4 378)">
<title>staging</title>
<polygon fill="white" stroke="none" points="-4,4 -4,-378 634.856,-378 634.856,4 -4,4"/>
<text text-anchor="middle" x="315.428" y="-358.8" font-family="Times,serif" font-size="14.00">Undoing commits in Git</text>
<text text-anchor="middle" x="315.428" y="-343.8" font-family="Times,serif" font-size="14.00">Nick Desaulniers</text>
<!-- a -->
<g id="node1" class="node"><title>a</title>
<ellipse fill="none" stroke="black" cx="290.856" cy="-309" rx="64.0209" ry="26.7407"/>
<text text-anchor="middle" x="290.856" y="-312.8" font-family="Times,serif" font-size="14.00">not modified,</text>
<text text-anchor="middle" x="290.856" y="-297.8" font-family="Times,serif" font-size="14.00">version A</text>
</g>
<!-- b -->
<g id="node2" class="node"><title>b</title>
<ellipse fill="none" stroke="red" cx="122.856" cy="-212" rx="42.3701" ry="18"/>
<text text-anchor="middle" x="122.856" y="-208.3" font-family="Times,serif" font-size="14.00">unstaged</text>
</g>
<!-- a&#45;&gt;b -->
<g id="edge1" class="edge"><title>a&#45;&gt;b</title>
<path fill="none" stroke="black" d="M231.129,-298.92C190.731,-291.497 142.365,-279.674 128.856,-264 123.228,-257.471 120.996,-248.598 120.397,-240.084"/>
<polygon fill="black" stroke="black" points="123.897,-240.045 120.357,-230.058 116.897,-240.072 123.897,-240.045"/>
<text text-anchor="middle" x="168.356" y="-252.3" font-family="Times,serif" font-size="14.00">&lt;modify file&gt;</text>
</g>
<!-- b&#45;&gt;a -->
<g id="edge2" class="edge"><title>b&#45;&gt;a</title>
<path fill="none" stroke="black" d="M154.765,-224.094C171.075,-230.269 190.987,-238.602 207.856,-248 217,-253.094 235.288,-266.193 252.376,-278.856"/>
<polygon fill="black" stroke="black" points="250.513,-281.833 260.623,-285.001 254.695,-276.22 250.513,-281.833"/>
<text text-anchor="middle" x="282.856" y="-252.3" font-family="Times,serif" font-size="14.00">git checkout &lt;file&gt;</text>
</g>
<!-- c -->
<g id="node3" class="node"><title>c</title>
<ellipse fill="none" stroke="green" cx="123.856" cy="-18" rx="33.2209" ry="18"/>
<text text-anchor="middle" x="123.856" y="-14.3" font-family="Times,serif" font-size="14.00">staged</text>
</g>
<!-- b&#45;&gt;c -->
<g id="edge3" class="edge"><title>b&#45;&gt;c</title>
<path fill="none" stroke="black" d="M114.88,-194.158C108.857,-180.46 101.095,-160.447 97.856,-142 93.7057,-118.362 93.555,-111.611 97.856,-88 100.535,-73.2924 106.18,-57.6446 111.528,-44.975"/>
<polygon fill="black" stroke="black" points="114.862,-46.09 115.691,-35.5277 108.456,-43.2674 114.862,-46.09"/>
<text text-anchor="middle" x="135.856" y="-111.3" font-family="Times,serif" font-size="14.00">git add &lt;file&gt;</text>
</g>
<!-- d -->
<g id="node4" class="node"><title>d</title>
<ellipse fill="none" stroke="black" cx="246.856" cy="-115" rx="64.0209" ry="26.7407"/>
<text text-anchor="middle" x="246.856" y="-118.8" font-family="Times,serif" font-size="14.00">not modified,</text>
<text text-anchor="middle" x="246.856" y="-103.8" font-family="Times,serif" font-size="14.00">version B</text>
</g>
<!-- b&#45;&gt;d -->
<g id="edge4" class="edge"><title>b&#45;&gt;d</title>
<path fill="none" stroke="black" d="M118.193,-193.895C116.332,-183.21 116.011,-169.691 122.856,-160 123.942,-158.462 156.807,-146.835 188.425,-135.921"/>
<polygon fill="black" stroke="black" points="189.846,-139.133 198.161,-132.568 187.567,-132.515 189.846,-139.133"/>
<text text-anchor="middle" x="172.856" y="-164.3" font-family="Times,serif" font-size="14.00">git commit &lt;file&gt;</text>
</g>
<!-- c&#45;&gt;a -->
<g id="edge5" class="edge"><title>c&#45;&gt;a</title>
<path fill="none" stroke="black" d="M156.582,-21.0164C213.821,-24.9896 329.401,-35.1279 364.856,-54 439.014,-93.4728 461.604,-115.626 491.856,-194 515.284,-254.696 428.365,-284.241 361.505,-297.744"/>
<polygon fill="black" stroke="black" points="360.539,-294.366 351.384,-299.699 361.866,-301.239 360.539,-294.366"/>
<text text-anchor="middle" x="557.356" y="-164.3" font-family="Times,serif" font-size="14.00">git checkout HEAD &lt;file&gt;</text>
</g>
<!-- c&#45;&gt;b -->
<g id="edge6" class="edge"><title>c&#45;&gt;b</title>
<path fill="none" stroke="black" d="M95.2126,-27.1558C67.5438,-36.7335 27.2106,-55.5822 8.85597,-88 -2.9688,-108.885 -2.92846,-121.092 8.85597,-142 24.0154,-168.895 54.3489,-186.501 79.9168,-197.193"/>
<polygon fill="black" stroke="black" points="78.8545,-200.536 89.441,-200.957 81.4275,-194.026 78.8545,-200.536"/>
<text text-anchor="middle" x="49.856" y="-111.3" font-family="Times,serif" font-size="14.00">git reset &lt;file&gt;</text>
</g>
<!-- c&#45;&gt;d -->
<g id="edge7" class="edge"><title>c&#45;&gt;d</title>
<path fill="none" stroke="black" d="M119.609,-36.1379C117.991,-46.8353 117.94,-60.3565 124.856,-70 126.965,-72.9409 157.734,-84.0281 187.841,-94.3362"/>
<polygon fill="black" stroke="black" points="186.961,-97.7338 197.555,-97.6443 189.217,-91.1075 186.961,-97.7338"/>
<text text-anchor="middle" x="174.856" y="-58.3" font-family="Times,serif" font-size="14.00">git commit &lt;file&gt;</text>
</g>
<!-- d&#45;&gt;a -->
<g id="edge8" class="edge"><title>d&#45;&gt;a</title>
<path fill="none" stroke="black" d="M296.62,-131.973C309.792,-138.589 322.619,-147.684 330.856,-160 379.836,-233.237 349.773,-239.183 338.856,-264 336.637,-269.045 333.522,-273.763 329.934,-278.098"/>
<polygon fill="black" stroke="black" points="327.317,-275.772 323.054,-285.471 332.435,-280.548 327.317,-275.772"/>
<text text-anchor="middle" x="422.856" y="-208.3" font-family="Times,serif" font-size="14.00">git reset &#45;&#45;hard HEAD~</text>
</g>
<!-- d&#45;&gt;b -->
<g id="edge9" class="edge"><title>d&#45;&gt;b</title>
<path fill="none" stroke="black" d="M241.7,-141.83C238.167,-153.611 232.339,-166.924 222.856,-176 208.953,-189.306 189.711,-197.582 171.817,-202.717"/>
<polygon fill="black" stroke="black" points="170.852,-199.352 162.056,-205.259 172.616,-206.126 170.852,-199.352"/>
<text text-anchor="middle" x="280.356" y="-164.3" font-family="Times,serif" font-size="14.00">git reset HEAD~</text>
</g>
<!-- d&#45;&gt;c -->
<g id="edge10" class="edge"><title>d&#45;&gt;c</title>
<path fill="none" stroke="black" d="M242.632,-88.1878C239.508,-76.411 234.116,-63.0966 224.856,-54 209,-38.425 185.874,-29.7626 165.751,-24.9538"/>
<polygon fill="black" stroke="black" points="166.37,-21.507 155.859,-22.8317 164.902,-28.3513 166.37,-21.507"/>
<text text-anchor="middle" x="297.856" y="-58.3" font-family="Times,serif" font-size="14.00">git reset &#45;&#45;soft HEAD~</text>
</g>
</g>
</svg>
