<?xml version="1.0" encoding="UTF-8" standalone="no"?>
<!DOCTYPE svg PUBLIC "-//W3C//DTD SVG 1.1//EN"
 "http://www.w3.org/Graphics/SVG/1.1/DTD/svg11.dtd">
<!-- Generated by graphviz version 2.36.0 (20140111.2315)
 -->
<!-- Title: staging Pages: 1 -->
<svg width="640pt" height="382pt"
 viewBox="0.00 0.00 639.83 382.00" xmlns="http://www.w3.org/2000/svg" xmlns:xlink="http://www.w3.org/1999/xlink">
<g id="graph0" class="graph" transform="scale(1 1) rotate(0) translate(4 378)">
<title>staging</title>
<polygon fill="white" stroke="none" points="-4,4 -4,-378 635.826,-378 635.826,4 -4,4"/>
<text text-anchor="middle" x="315.913" y="-358.8" font-family="Times,serif" font-size="14.00">Undoing commits in Git</text>
<text text-anchor="middle" x="315.913" y="-343.8" font-family="Times,serif" font-size="14.00">Nick Desaulniers</text>
<!-- a -->
<g id="node1" class="node"><title>a</title>
<ellipse fill="none" stroke="black" cx="290.826" cy="-309" rx="61.2774" ry="26.7407"/>
<text text-anchor="middle" x="290.826" y="-312.8" font-family="Times,serif" font-size="14.00">not modified</text>
<text text-anchor="middle" x="290.826" y="-297.8" font-family="Times,serif" font-size="14.00">version A</text>
</g>
<!-- b -->
<g id="node2" class="node"><title>b</title>
<ellipse fill="none" stroke="red" cx="122.826" cy="-212" rx="42.3701" ry="18"/>
<text text-anchor="middle" x="122.826" y="-208.3" font-family="Times,serif" font-size="14.00">unstaged</text>
</g>
<!-- a&#45;&gt;b -->
<g id="edge1" class="edge"><title>a&#45;&gt;b</title>
<path fill="none" stroke="black" d="M233.224,-299.307C192.415,-291.913 142.572,-279.95 128.826,-264 123.198,-257.471 120.965,-248.598 120.366,-240.084"/>
<polygon fill="black" stroke="black" points="123.866,-240.045 120.327,-230.058 116.866,-240.072 123.866,-240.045"/>
<text text-anchor="middle" x="168.326" y="-252.3" font-family="Times,serif" font-size="14.00">&lt;modify file&gt;</text>
</g>
<!-- b&#45;&gt;a -->
<g id="edge2" class="edge"><title>b&#45;&gt;a</title>
<path fill="none" stroke="black" d="M154.735,-224.094C171.044,-230.269 190.956,-238.602 207.826,-248 217.036,-253.131 235.525,-266.385 252.72,-279.134"/>
<polygon fill="black" stroke="black" points="250.901,-282.143 261.01,-285.314 255.085,-276.531 250.901,-282.143"/>
<text text-anchor="middle" x="283.826" y="-252.3" font-family="Times,serif" font-size="14.00">git checkout &lt;file&gt;</text>
</g>
<!-- c -->
<g id="node3" class="node"><title>c</title>
<ellipse fill="none" stroke="green" cx="121.826" cy="-18" rx="33.2209" ry="18"/>
<text text-anchor="middle" x="121.826" y="-14.3" font-family="Times,serif" font-size="14.00">staged</text>
</g>
<!-- b&#45;&gt;c -->
<g id="edge3" class="edge"><title>b&#45;&gt;c</title>
<path fill="none" stroke="black" d="M114.85,-194.158C108.827,-180.46 101.064,-160.447 97.8255,-142 93.6752,-118.362 93.8274,-111.665 97.8255,-88 100.293,-73.3955 105.504,-57.7567 110.441,-45.0665"/>
<polygon fill="black" stroke="black" points="113.767,-46.1796 114.285,-35.5974 107.281,-43.5467 113.767,-46.1796"/>
<text text-anchor="middle" x="135.826" y="-111.3" font-family="Times,serif" font-size="14.00">git add &lt;file&gt;</text>
</g>
<!-- d -->
<g id="node4" class="node"><title>d</title>
<ellipse fill="none" stroke="black" cx="244.826" cy="-115" rx="61.2774" ry="26.7407"/>
<text text-anchor="middle" x="244.826" y="-118.8" font-family="Times,serif" font-size="14.00">not modified</text>
<text text-anchor="middle" x="244.826" y="-103.8" font-family="Times,serif" font-size="14.00">version B</text>
</g>
<!-- b&#45;&gt;d -->
<g id="edge4" class="edge"><title>b&#45;&gt;d</title>
<path fill="none" stroke="black" d="M118.179,-193.907C116.326,-183.227 116.006,-169.709 122.826,-160 123.899,-158.471 156.673,-146.694 187.977,-135.709"/>
<polygon fill="black" stroke="black" points="189.326,-138.945 197.608,-132.338 187.014,-132.338 189.326,-138.945"/>
<text text-anchor="middle" x="172.826" y="-164.3" font-family="Times,serif" font-size="14.00">git commit &lt;file&gt;</text>
</g>
<!-- c&#45;&gt;a -->
<g id="edge5" class="edge"><title>c&#45;&gt;a</title>
<path fill="none" stroke="black" d="M154.673,-21.0308C212.125,-25.0269 328.147,-35.2003 363.826,-54 438.679,-93.4418 462.051,-115.186 492.826,-194 516.892,-255.636 426.845,-285.114 359.258,-298.324"/>
<polygon fill="black" stroke="black" points="358.232,-294.955 349.045,-300.232 359.518,-301.836 358.232,-294.955"/>
<text text-anchor="middle" x="558.326" y="-164.3" font-family="Times,serif" font-size="14.00">git checkout HEAD &lt;file&gt;</text>
</g>
<!-- c&#45;&gt;b -->
<g id="edge6" class="edge"><title>c&#45;&gt;b</title>
<path fill="none" stroke="black" d="M93.4083,-27.3918C66.2156,-37.1095 26.7653,-56.0258 8.82554,-88 -2.91799,-108.931 -2.95889,-121.092 8.82554,-142 23.9849,-168.895 54.3185,-186.501 79.8863,-197.193"/>
<polygon fill="black" stroke="black" points="78.824,-200.536 89.4105,-200.957 81.3971,-194.026 78.824,-200.536"/>
<text text-anchor="middle" x="49.8255" y="-111.3" font-family="Times,serif" font-size="14.00">git reset &lt;file&gt;</text>
</g>
<!-- c&#45;&gt;d -->
<g id="edge7" class="edge"><title>c&#45;&gt;d</title>
<path fill="none" stroke="black" d="M117.579,-36.1379C115.96,-46.8353 115.91,-60.3565 122.826,-70 123.914,-71.5183 156.687,-83.2961 187.988,-94.2836"/>
<polygon fill="black" stroke="black" points="187.023,-97.654 197.618,-97.6559 189.336,-91.0474 187.023,-97.654"/>
<text text-anchor="middle" x="172.826" y="-58.3" font-family="Times,serif" font-size="14.00">git commit &lt;file&gt;</text>
</g>
<!-- d&#45;&gt;a -->
<g id="edge8" class="edge"><title>d&#45;&gt;a</title>
<path fill="none" stroke="black" d="M294.401,-131.081C308.355,-137.736 322.093,-147.077 330.826,-160 380.007,-232.779 349.779,-239.1 338.826,-264 336.55,-269.174 333.332,-274.005 329.626,-278.43"/>
<polygon fill="black" stroke="black" points="326.852,-276.271 322.529,-285.943 331.94,-281.078 326.852,-276.271"/>
<text text-anchor="middle" x="423.826" y="-208.3" font-family="Times,serif" font-size="14.00">git reset &#45;&#45;hard HEAD~</text>
</g>
<!-- d&#45;&gt;b -->
<g id="edge9" class="edge"><title>d&#45;&gt;b</title>
<path fill="none" stroke="black" d="M240.508,-142.102C237.369,-153.801 231.993,-166.967 222.826,-176 209.118,-189.507 189.911,-197.82 171.991,-202.928"/>
<polygon fill="black" stroke="black" points="171.02,-199.563 162.21,-205.448 172.767,-206.342 171.02,-199.563"/>
<text text-anchor="middle" x="280.326" y="-164.3" font-family="Times,serif" font-size="14.00">git reset HEAD~</text>
</g>
<!-- d&#45;&gt;c -->
<g id="edge10" class="edge"><title>d&#45;&gt;c</title>
<path fill="none" stroke="black" d="M240.601,-88.1878C237.477,-76.411 232.086,-63.0966 222.826,-54 206.97,-38.425 183.844,-29.7626 163.721,-24.9538"/>
<polygon fill="black" stroke="black" points="164.34,-21.507 153.828,-22.8317 162.872,-28.3513 164.34,-21.507"/>
<text text-anchor="middle" x="296.826" y="-58.3" font-family="Times,serif" font-size="14.00">git reset &#45;&#45;soft HEAD~</text>
</g>
</g>
</svg>
